<svg xmlns="http://www.w3.org/2000/svg" viewBox="0 0 200 200">
  <circle cx="100" cy="100" r="100" fill="#f25c5c"/>
  <g fill="none" stroke="#fff" stroke-width="2" stroke-linecap="round" stroke-linejoin="round">
    <!-- Adult arm from top right -->
    <path d="M180 20 Q160 40, 140 65 Q125 85, 115 100 Q108 112, 105 125"/>
    <path d="M170 28 Q152 48, 135 70 Q122 88, 112 105"/>
    <path d="M160 35 Q145 52, 130 72 Q120 85, 110 98"/>

    <!-- Adult finger pointing down -->
    <path d="M105 125 Q103 135, 102 145 Q101 155, 102 165"/>
    <path d="M115 120 Q112 132, 110 142"/>
    <ellipse cx="103" cy="148" rx="12" ry="18"/>

    <!-- Baby arm from bottom left -->
    <path d="M20 180 Q40 168, 58 155 Q72 145, 82 138"/>
    <path d="M28 170 Q48 160, 65 148 Q78 140, 88 132"/>

    <!-- Baby fist -->
    <ellipse cx="80" cy="155" rx="28" ry="22"/>

    <!-- Baby fingers wrapping around adult finger -->
    <path d="M58 148 Q68 142, 80 140 Q90 139, 98 142"/>
    <path d="M55 155 Q65 150, 78 148 Q88 147, 96 150"/>
    <path d="M56 163 Q66 159, 78 158 Q88 157, 98 160"/>
    <path d="M60 172 Q70 168, 82 167 Q92 166, 100 170"/>

    <!-- Baby thumb -->
    <ellipse cx="95" cy="135" rx="8" ry="10"/>

    <!-- Small wrinkle details on baby hand -->
    <path d="M65 150 Q68 152, 72 151"/>
    <path d="M63 160 Q67 162, 72 161"/>
  </g>
</svg>
